<svg width="215" height="142" viewBox="0 0 215 142" fill="none" xmlns="http://www.w3.org/2000/svg">
<path d="M210.105 129.448H19.9907C18.6929 129.446 17.4487 128.928 16.531 128.006C15.6134 127.085 15.0972 125.836 15.0957 124.533V6.81977C15.0968 5.86507 15.4749 4.94977 16.1472 4.27469C16.8195 3.5996 17.731 3.21985 18.6818 3.21875H211.352C212.319 3.21985 213.246 3.60616 213.93 4.29292C214.614 4.97968 214.999 5.91081 215 6.88202V124.533C214.998 125.836 214.482 127.085 213.564 128.006C212.647 128.928 211.403 129.446 210.105 129.448Z" fill="#F2F2F2"/>
<path d="M203.958 123.242H26.7767C24.1794 123.242 22.0664 121.255 22.0664 118.813V16.3073C22.0664 14.4961 23.6322 13.0225 25.5569 13.0225H205.12C207.077 13.0225 208.669 14.5203 208.669 16.3614V118.813C208.669 121.255 206.555 123.242 203.958 123.242Z" fill="white"/>
<path d="M214.932 7.43244H15.0273V4.93004C15.0292 3.62256 15.5475 2.36922 16.4685 1.44498C17.3895 0.520742 18.638 0.00108019 19.9401 0H210.019C211.321 0.0010739 212.57 0.520736 213.491 1.44498C214.412 2.36922 214.93 3.62256 214.932 4.93004V7.43244Z" fill="#3F3D56"/>
<path d="M23.9553 4.99974C24.6571 4.99974 25.226 4.42846 25.226 3.72375C25.226 3.01903 24.6571 2.44775 23.9553 2.44775C23.2535 2.44775 22.6846 3.01903 22.6846 3.72375C22.6846 4.42846 23.2535 4.99974 23.9553 4.99974Z" fill="white"/>
<path d="M28.7786 4.99974C29.4804 4.99974 30.0493 4.42846 30.0493 3.72375C30.0493 3.01903 29.4804 2.44775 28.7786 2.44775C28.0767 2.44775 27.5078 3.01903 27.5078 3.72375C27.5078 4.42846 28.0767 4.99974 28.7786 4.99974Z" fill="white"/>
<path d="M33.6018 4.99974C34.3036 4.99974 34.8725 4.42846 34.8725 3.72375C34.8725 3.01903 34.3036 2.44775 33.6018 2.44775C32.9 2.44775 32.3311 3.01903 32.3311 3.72375C32.3311 4.42846 32.9 4.99974 33.6018 4.99974Z" fill="white"/>
<path d="M165.338 40.627H81.3904C78.0294 40.627 75.3047 43.3629 75.3047 46.7378V46.7378C75.3047 50.1128 78.0294 52.8487 81.3904 52.8487H165.338C168.699 52.8487 171.424 50.1128 171.424 46.7378C171.424 43.3629 168.699 40.627 165.338 40.627Z" fill="#E6E6E6"/>
<path d="M165.338 60.8501H81.3904C78.0294 60.8501 75.3047 63.586 75.3047 66.961V66.961C75.3047 70.3359 78.0294 73.0718 81.3904 73.0718H165.338C168.699 73.0718 171.424 70.3359 171.424 66.961C171.424 63.586 168.699 60.8501 165.338 60.8501Z" fill="#E6E6E6"/>
<path d="M165.338 81.0737H81.3904C78.0294 81.0737 75.3047 83.8097 75.3047 87.1846V87.1846C75.3047 90.5595 78.0294 93.2955 81.3904 93.2955H165.338C168.699 93.2955 171.424 90.5595 171.424 87.1846C171.424 83.8097 168.699 81.0737 165.338 81.0737Z" fill="#E6E6E6"/>
<path d="M64.6255 73.217C68.0662 73.217 70.8554 70.4162 70.8554 66.9613C70.8554 63.5063 68.0662 60.7056 64.6255 60.7056C61.1848 60.7056 58.3955 63.5063 58.3955 66.9613C58.3955 70.4162 61.1848 73.217 64.6255 73.217Z" fill="#E6E6E6"/>
<path d="M66.8494 66.5303L64.9577 64.4873C64.9152 64.4414 64.8638 64.4048 64.8066 64.3798C64.7494 64.3547 64.6876 64.3418 64.6252 64.3418C64.5628 64.3418 64.5011 64.3547 64.4439 64.3797C64.3867 64.4048 64.3352 64.4414 64.2927 64.4872L62.4007 66.5303C62.3742 66.5589 62.3535 66.5926 62.3399 66.6293C62.3263 66.666 62.3201 66.705 62.3215 66.7441C62.3229 66.7832 62.332 66.8217 62.3482 66.8573C62.3644 66.8929 62.3875 66.9249 62.416 66.9516C62.4446 66.9782 62.4781 66.999 62.5146 67.0126C62.5512 67.0263 62.59 67.0326 62.629 67.0312C62.6679 67.0297 62.7062 67.0206 62.7417 67.0043C62.7771 66.9881 62.809 66.9649 62.8356 66.9362L64.3281 65.324V69.2825C64.3281 69.3615 64.3593 69.4373 64.4149 69.4932C64.4706 69.549 64.546 69.5804 64.6247 69.5804C64.7034 69.5804 64.7789 69.549 64.8345 69.4932C64.8901 69.4373 64.9214 69.3615 64.9214 69.2825V65.3229L66.4144 66.9362C66.4681 66.9939 66.5423 67.0278 66.6209 67.0306C66.6995 67.0334 66.7759 67.0048 66.8335 66.951C66.8911 66.8973 66.9251 66.8228 66.9281 66.744C66.9311 66.6651 66.9028 66.5882 66.8494 66.5303Z" fill="white"/>
<path d="M64.6255 93.4401C68.0662 93.4401 70.8554 90.6394 70.8554 87.1844C70.8554 83.7295 68.0662 80.9287 64.6255 80.9287C61.1848 80.9287 58.3955 83.7295 58.3955 87.1844C58.3955 90.6394 61.1848 93.4401 64.6255 93.4401Z" fill="#E6E6E6"/>
<path d="M66.8498 86.7539L64.9581 84.7109C64.9156 84.665 64.8642 84.6284 64.807 84.6034C64.7498 84.5784 64.688 84.5654 64.6256 84.5654C64.5632 84.5654 64.5015 84.5783 64.4443 84.6034C64.387 84.6284 64.3356 84.665 64.2931 84.7109L62.4011 86.7539C62.3745 86.7826 62.3537 86.8162 62.3401 86.8529C62.3264 86.8896 62.3201 86.9287 62.3215 86.9679C62.3229 87.007 62.3319 87.0455 62.3481 87.0812C62.3644 87.1168 62.3874 87.1489 62.416 87.1756C62.4446 87.2023 62.4782 87.2231 62.5148 87.2367C62.5513 87.2504 62.5902 87.2567 62.6292 87.2552C62.6683 87.2537 62.7066 87.2446 62.7421 87.2282C62.7775 87.2119 62.8095 87.1886 62.836 87.1599L64.3284 85.5477V89.5062C64.3284 89.5852 64.3597 89.6609 64.4153 89.7168C64.471 89.7727 64.5464 89.8041 64.6251 89.8041C64.7038 89.8041 64.7792 89.7727 64.8349 89.7168C64.8905 89.6609 64.9218 89.5852 64.9218 89.5062V85.5465L66.4148 87.1598C66.4685 87.2175 66.5427 87.2515 66.6213 87.2542C66.6999 87.257 66.7763 87.2284 66.8339 87.1747C66.8915 87.1209 66.9255 87.0465 66.9285 86.9676C66.9315 86.8887 66.9032 86.8119 66.8498 86.7539Z" fill="white"/>
<path d="M64.6255 52.9934C68.0662 52.9934 70.8554 50.1926 70.8554 46.7376C70.8554 43.2827 68.0662 40.4819 64.6255 40.4819C61.1848 40.4819 58.3955 43.2827 58.3955 46.7376C58.3955 50.1926 61.1848 52.9934 64.6255 52.9934Z" fill="#6C63FF"/>
<path d="M66.8498 46.3071L64.9581 44.2642C64.9156 44.2183 64.8642 44.1817 64.807 44.1566C64.7498 44.1316 64.688 44.1187 64.6256 44.1187C64.5632 44.1186 64.5015 44.1316 64.4443 44.1566C64.387 44.1816 64.3356 44.2182 64.2931 44.2641L62.4011 46.3071C62.3745 46.3358 62.3537 46.3694 62.3401 46.4061C62.3264 46.4428 62.3201 46.4819 62.3215 46.5211C62.3229 46.5603 62.3319 46.5988 62.3481 46.6344C62.3644 46.6701 62.3874 46.7022 62.416 46.7288C62.4446 46.7555 62.4782 46.7763 62.5148 46.79C62.5513 46.8036 62.5902 46.8099 62.6292 46.8084C62.6683 46.807 62.7066 46.7978 62.7421 46.7814C62.7775 46.7651 62.8095 46.7419 62.836 46.7131L64.3284 45.1009V49.0594C64.3284 49.1384 64.3597 49.2142 64.4153 49.27C64.471 49.3259 64.5464 49.3573 64.6251 49.3573C64.7038 49.3573 64.7792 49.3259 64.8349 49.27C64.8905 49.2142 64.9218 49.1384 64.9218 49.0594V45.0997L66.4148 46.713C66.4685 46.7707 66.5427 46.8047 66.6213 46.8075C66.6999 46.8102 66.7763 46.7816 66.8339 46.7279C66.8915 46.6742 66.9255 46.5997 66.9285 46.5208C66.9315 46.4419 66.9032 46.3651 66.8498 46.3071Z" fill="white"/>
<path d="M58.7827 46.5704C58.3485 46.5285 57.9105 46.5826 57.4995 46.729C57.0885 46.8754 56.7144 47.1106 56.4037 47.4179C56.093 47.7251 55.8531 48.0971 55.701 48.5075C55.5489 48.9179 55.4883 49.3569 55.5234 49.7934L45.8203 54.0815L50.4488 57.0815L58.9534 52.5495C59.6798 52.4417 60.3415 52.07 60.8132 51.505C61.285 50.94 61.5339 50.2208 61.5128 49.4838C61.4918 48.7468 61.2022 48.0432 60.699 47.5062C60.1959 46.9693 59.514 46.6363 58.7827 46.5704V46.5704Z" fill="#A0616A"/>
<path d="M19.6438 41.2214C23.668 41.2214 26.9302 37.9457 26.9302 33.9049C26.9302 29.8641 23.668 26.5884 19.6438 26.5884C15.6197 26.5884 12.3574 29.8641 12.3574 33.9049C12.3574 37.9457 15.6197 41.2214 19.6438 41.2214Z" fill="#A0616A"/>
<path d="M32.8307 138.231L36.4678 138.23L38.1979 124.144L32.8301 124.144L32.8307 138.231Z" fill="#A0616A"/>
<path d="M31.9033 137.038L39.0659 137.038H39.0662C39.6657 137.038 40.2592 137.157 40.813 137.387C41.3669 137.617 41.8701 137.955 42.2939 138.381C42.7178 138.806 43.054 139.311 43.2834 139.868C43.5128 140.424 43.6309 141.02 43.6308 141.622V141.77L31.9035 141.771L31.9033 137.038Z" fill="#2F2E41"/>
<path d="M17.7008 138.231L21.3379 138.23L23.0681 124.144L17.7002 124.144L17.7008 138.231Z" fill="#A0616A"/>
<path d="M16.7734 137.038L23.936 137.038H23.9363C24.5358 137.038 25.1294 137.157 25.6832 137.387C26.237 137.617 26.7402 137.955 27.164 138.381C27.5879 138.806 27.9241 139.311 28.1535 139.868C28.3829 140.424 28.501 141.02 28.501 141.622V141.77L16.7737 141.771L16.7734 137.038Z" fill="#2F2E41"/>
<path d="M16.9906 134.895C16.849 134.77 16.7356 134.616 16.6576 134.443C16.5797 134.271 16.539 134.084 16.5383 133.894L16.3672 81.1076L35.3603 80.3724L35.4999 80.3672L38.6234 112.031L39.0148 132.202C39.0223 132.535 38.9055 132.859 38.6874 133.11C38.4694 133.361 38.1658 133.521 37.8361 133.559L33.2258 134.104C33.0429 134.126 32.8575 134.109 32.6813 134.056C32.5051 134.002 32.3419 133.912 32.2019 133.792C32.062 133.672 31.9483 133.524 31.8681 133.357C31.7878 133.191 31.7428 133.01 31.7357 132.825L30.915 111.396L26.9295 98.0547C26.8876 97.9644 26.8168 97.8907 26.7283 97.8454C26.6399 97.8001 26.5389 97.7858 26.4415 97.8048C26.344 97.8238 26.2557 97.8749 26.1905 97.9501C26.1253 98.0253 26.0871 98.1202 26.0818 98.2197L24.5304 133.3C24.5147 133.615 24.3887 133.915 24.1746 134.146C23.9605 134.376 23.6721 134.524 23.3602 134.562L18.0364 135.22C17.8491 135.243 17.659 135.227 17.4787 135.171C17.2984 135.115 17.132 135.021 16.9906 134.895L16.9906 134.895Z" fill="#2F2E41"/>
<path d="M15.7901 82.9808L10.163 60.0345C8.40959 52.8845 12.415 45.6854 19.0918 43.9865C20.6584 43.5848 22.2925 43.5245 23.8843 43.8095C25.476 44.0945 26.9886 44.7183 28.3205 45.6389C29.8345 46.6906 31.1107 48.0512 32.0656 49.6317C33.0205 51.2123 33.6327 52.9773 33.8622 54.8115L37.5379 81.9766C37.5632 82.1632 37.549 82.3531 37.4963 82.5339C37.4436 82.7146 37.3536 82.8822 37.2321 83.0256C37.1106 83.1691 36.9603 83.2852 36.7911 83.3665C36.6219 83.4477 36.4376 83.4923 36.2501 83.4972L17.1214 84.0005C17.1098 84.0008 17.0982 84.0008 17.0866 84.0008C16.7884 83.9995 16.4991 83.8985 16.2644 83.7138C16.0296 83.5292 15.8628 83.2713 15.7901 82.9808Z" fill="#6C63FF"/>
<path d="M39.3641 61.7816L25.098 54.8236C24.5014 54.5326 23.9715 54.1205 23.5417 53.6132C23.1119 53.106 22.7917 52.5147 22.6012 51.8768C22.4108 51.2388 22.3543 50.5681 22.4353 49.9071C22.5163 49.2461 22.7331 48.6092 23.0719 48.0367C23.4107 47.4641 23.8642 46.9684 24.4036 46.581C24.943 46.1935 25.5567 45.9226 26.2057 45.7856C26.8548 45.6486 27.5251 45.6483 28.1743 45.7848C28.8234 45.9213 29.4373 46.1916 29.977 46.5787L41.5199 54.8559L53.9803 49.8735C54.2283 49.7737 54.5006 49.7512 54.7615 49.8089C55.0225 49.8667 55.2601 50.002 55.4434 50.1973L57.1238 51.9788C57.2581 52.1212 57.3597 52.2914 57.4213 52.4775C57.483 52.6635 57.5032 52.8609 57.4806 53.0557C57.458 53.2504 57.3931 53.4378 57.2905 53.6047C57.1879 53.7715 57.0501 53.9138 56.8868 54.0213L45.7316 61.3702C44.7953 61.9835 43.7172 62.3436 42.6016 62.4157C41.4861 62.4878 40.3709 62.2693 39.3641 61.7816V61.7816Z" fill="#6C63FF"/>
<path d="M16.8263 40.7623C16.2542 40.7735 15.687 40.6559 15.1662 40.418C14.9338 40.3154 14.6926 40.231 14.4607 40.1283C12.4124 39.2212 11.0631 36.7207 11.0148 34.2043C11.0088 32.9775 11.252 31.7623 11.7294 30.6329C12.2068 29.5036 12.9084 28.4838 13.7915 27.6359C15.4583 26.0959 17.5964 25.1696 19.8557 25.0088C22.2142 24.803 24.8699 25.4885 26.1878 27.7399C26.3881 28.0371 26.5259 28.3722 26.5927 28.7247C26.6594 29.0772 26.6538 29.4397 26.5761 29.7899C26.5168 30.0029 26.4061 30.198 26.2536 30.3577C25.6651 30.9579 25.0783 30.5066 24.4783 30.4667C23.6537 30.4119 22.913 31.177 22.6468 32.0734C22.3806 32.9697 22.4977 33.9565 22.7127 34.8708L22.7167 34.8878C22.7653 35.1012 22.7678 35.3226 22.7242 35.5371C22.6805 35.7516 22.5916 35.9542 22.4634 36.1314C22.3353 36.3085 22.1708 36.4561 21.9812 36.5641C21.7915 36.6721 21.581 36.7381 21.3639 36.7576C20.4569 36.8398 19.4605 36.891 19.1761 36.757C18.6191 36.4947 17.8709 36.5529 17.5467 37.1345C17.4427 37.3495 17.3732 37.5796 17.3407 37.8163C17.0501 39.334 17.1169 39.2446 16.8263 40.7623L16.8263 40.7623Z" fill="#2F2E41"/>
<path d="M14.7647 95.1578C15.0251 94.8065 15.2056 94.4021 15.2935 93.9732C15.3814 93.5443 15.3746 93.1012 15.2735 92.6752C15.1724 92.2492 14.9796 91.8506 14.7085 91.5075C14.4374 91.1645 14.0948 90.8853 13.7046 90.6896L15.0712 80.1333L10.1196 82.5579L9.58102 92.2106C9.29706 92.8906 9.27136 93.6515 9.50878 94.3492C9.7462 95.0469 10.2302 95.6329 10.8692 95.9962C11.5082 96.3594 12.2576 96.4747 12.9756 96.3202C13.6935 96.1657 14.3301 95.7521 14.7647 95.1578Z" fill="#A0616A"/>
<path d="M15.3336 88.7271C15.2435 88.7586 15.1502 88.7805 15.0555 88.7925L10.0581 89.427C9.86999 89.4509 9.67901 89.4343 9.49783 89.3783C9.31666 89.3223 9.14943 89.2282 9.0073 89.1022C8.86516 88.9763 8.75138 88.8214 8.67351 88.6478C8.59563 88.4743 8.55546 88.286 8.55566 88.0957L8.59512 53.0573C8.60095 52.0431 8.96779 51.0645 9.62937 50.2982C10.291 49.5319 11.2037 49.0284 12.2026 48.8788C12.8338 48.7873 13.4775 48.8411 14.0849 49.036C14.6924 49.2309 15.2479 49.5618 15.7093 50.0039C16.1707 50.4459 16.5261 50.9874 16.7486 51.5876C16.9711 52.1877 17.0549 52.8308 16.9937 53.4682L15.5418 68.5678L16.2223 87.4142C16.234 87.6998 16.1539 87.9816 15.9938 88.218C15.8338 88.4544 15.6024 88.6329 15.3336 88.7271Z" fill="#6C63FF"/>
<path d="M61.4096 142H0.296665C0.217984 142 0.142526 141.969 0.0868909 141.913C0.0312554 141.857 0 141.781 0 141.702C0 141.623 0.0312554 141.547 0.0868909 141.492C0.142526 141.436 0.217984 141.404 0.296665 141.404H61.4096C61.4883 141.404 61.5637 141.436 61.6194 141.492C61.675 141.547 61.7063 141.623 61.7063 141.702C61.7063 141.781 61.675 141.857 61.6194 141.913C61.5637 141.969 61.4883 142 61.4096 142Z" fill="#CCCCCC"/>
</svg>
