<svg width="259" height="175" viewBox="0 0 259 175" fill="none" xmlns="http://www.w3.org/2000/svg">
<g clip-path="url(#clip0)">
<path d="M236.554 61.2304C236.283 61.4534 236.011 61.6667 235.733 61.8768H167.167C166.657 61.6667 166.148 61.4513 165.642 61.2304C158.404 58.0803 151.666 53.8857 145.645 48.7804C141.647 45.3932 137.969 41.8961 135.302 38.6187C131.582 34.0453 128.156 29.0614 126.563 23.3827C124.973 17.7039 125.448 11.1944 129 6.48528C130.1 5.03668 131.452 3.79836 132.991 2.82979C133.247 2.66819 133.505 2.51305 133.77 2.3676C138.03 -0.0241418 143.405 -0.605921 148.202 0.631969C155.07 2.40639 160.778 7.36118 164.85 13.1725C168.923 18.9805 171.566 25.6516 174.171 32.2483C176.815 20.4738 184.821 9.92746 195.636 4.56542C206.447 -0.796615 219.88 -0.731973 230.461 5.07609C233.791 6.91463 236.799 9.28357 239.366 12.0897C239.621 12.3645 239.87 12.6456 240.116 12.9301C245.277 18.9062 248.506 26.5598 248.771 34.4526C249.111 44.6207 244.398 54.8341 236.554 61.2304Z" fill="#F2F2F2"/>
<path d="M169.908 61.8767H168.939C168.926 61.6601 168.91 61.4468 168.89 61.2303C168.551 57.0025 167.842 52.8127 166.77 48.7091C164.311 39.3406 160.11 30.5185 154.388 22.7037C148.682 14.864 141.488 8.22401 133.218 3.16253C133.157 3.12786 133.105 3.07987 133.066 3.02218C133.027 2.9645 133.002 2.89865 132.992 2.82962C132.976 2.73936 132.986 2.64647 133.021 2.56176C133.056 2.47705 133.114 2.40402 133.189 2.35118C133.264 2.29834 133.352 2.26786 133.444 2.26329C133.535 2.25873 133.626 2.28028 133.706 2.32542C133.728 2.33827 133.75 2.3523 133.77 2.36743C138.456 5.22348 142.806 8.59744 146.738 12.4257C153.77 19.2862 159.441 27.4157 163.451 36.3852C166.988 44.2407 169.155 52.6437 169.857 61.2303C169.876 61.4468 169.892 61.6634 169.908 61.8767Z" fill="white"/>
<path d="M240.116 12.9299C240.109 12.9336 240.101 12.9358 240.093 12.9364C239.386 13.0657 238.674 13.2014 237.97 13.3469C232.186 14.5347 226.524 16.2539 221.056 18.4827C215.603 20.7083 210.357 23.4122 205.381 26.5629C200.398 29.7119 195.699 33.2894 191.337 37.2547C186.976 41.2142 182.975 45.5537 179.382 50.2218C176.696 53.7194 174.255 57.3976 172.074 61.2303C171.951 61.4436 171.832 61.6602 171.712 61.8767H170.604C170.72 61.6602 170.839 61.4436 170.962 61.2303C173.6 56.534 176.625 52.0658 180.006 47.8721C183.744 43.2308 187.888 38.9313 192.388 35.0245C196.859 31.1397 201.659 27.649 206.732 24.5913C211.826 21.5213 217.182 18.9082 222.737 16.7826C228.128 14.7217 233.693 13.151 239.366 12.0896C239.524 12.0605 239.68 12.0314 239.838 12.0023C240.442 11.8924 240.701 12.8039 240.116 12.9299Z" fill="white"/>
<path d="M63.8919 63.7982C65.6162 60.5433 65.9008 56.3039 63.7568 53.3087C62.4806 51.5258 60.4879 50.3555 58.397 49.6953C56.3061 49.0352 54.1004 48.8412 51.9137 48.6808C49.749 48.5219 47.5459 48.3948 45.4313 48.8844C43.3168 49.374 41.2686 50.57 40.2385 52.4805C38.4984 55.7079 40.0836 59.8462 38.8054 63.2829C37.6325 66.4367 34.2943 68.2805 31.0128 69.0246C27.7312 69.7687 24.3061 69.6895 21.0229 70.4263C17.7398 71.1632 14.396 72.9899 13.2023 76.1359C12.3391 78.4109 12.768 81.0314 13.9054 83.1824C15.0429 85.3334 16.8243 87.0748 18.7152 88.6062C21.5361 90.8907 24.8363 92.8473 28.4609 93.0454C32.28 93.254 36.0143 91.436 38.7631 88.7764C41.5119 86.1168 43.3833 82.6799 44.8785 79.1594C45.827 76.9261 46.7231 74.5225 48.6239 73.0143C50.0206 71.9061 51.7971 71.4206 53.5199 70.9614L55.4707 70.4415C57.2385 69.9789 58.8929 69.1596 60.3322 68.0339C61.7715 66.9082 62.9652 65.4998 63.84 63.8956C63.8574 63.8632 63.8747 63.8307 63.8919 63.7982Z" fill="#2F2E41"/>
<path d="M48.5067 170.869H44.5445L42.6592 155.585H48.5077L48.5067 170.869Z" fill="#FFB8B8"/>
<path d="M41.7139 169.737H49.3558V174.548H36.9023C36.9023 173.917 37.0268 173.291 37.2686 172.707C37.5104 172.123 37.8648 171.593 38.3116 171.146C38.7584 170.699 39.2888 170.345 39.8726 170.103C40.4564 169.861 41.082 169.737 41.7139 169.737Z" fill="#2F2E41"/>
<path d="M81.4744 170.869H77.5122L75.627 155.585H81.4754L81.4744 170.869Z" fill="#FFB8B8"/>
<path d="M74.6817 169.737H82.3236V174.548H69.8701C69.8701 173.917 69.9946 173.291 70.2364 172.707C70.4782 172.123 70.8326 171.593 71.2794 171.146C71.7262 170.699 72.2566 170.345 72.8404 170.103C73.4241 169.861 74.0498 169.737 74.6817 169.737Z" fill="#2F2E41"/>
<path d="M56.1243 158.721C56.069 158.721 56.0138 158.718 55.9588 158.712L39.838 156.985C39.6239 156.962 39.4171 156.894 39.2315 156.785C39.0458 156.676 38.8855 156.528 38.7613 156.352C38.637 156.177 38.5516 155.976 38.5109 155.765C38.4701 155.553 38.4748 155.336 38.5247 155.126L52.7984 100.837C52.8652 100.561 53.0079 100.309 53.2104 100.109C53.4129 99.9096 53.6671 99.7707 53.9443 99.7081L67.1855 96.017C67.451 95.9587 67.7273 95.9723 67.9857 96.0565C68.2442 96.1408 68.4755 96.2925 68.6557 96.496C77.1691 106.099 83.5848 127.385 88.4448 154.216C88.4814 154.419 88.4765 154.627 88.4303 154.827C88.3841 155.028 88.2975 155.217 88.1759 155.383C88.0543 155.549 87.9002 155.688 87.7229 155.793C87.5457 155.897 87.349 155.964 87.1449 155.991L73.9361 157.677C73.5614 157.726 73.1821 157.632 72.8728 157.416C72.5635 157.199 72.3466 156.874 72.2648 156.505L65.8382 127.853C65.7791 127.589 65.6312 127.354 65.4193 127.186C65.2074 127.018 64.9443 126.929 64.674 126.932C64.4038 126.935 64.1428 127.031 63.9348 127.203C63.7268 127.376 63.5844 127.615 63.5314 127.88L57.6068 157.502C57.5398 157.846 57.3551 158.155 57.0846 158.378C56.8141 158.6 56.4745 158.722 56.1243 158.721Z" fill="#2F2E41"/>
<path d="M53.6717 71.2532C58.056 71.2532 61.6101 67.699 61.6101 63.3148C61.6101 58.9306 58.056 55.3765 53.6717 55.3765C49.2875 55.3765 45.7334 58.9306 45.7334 63.3148C45.7334 67.699 49.2875 71.2532 53.6717 71.2532Z" fill="#FFB8B8"/>
<path d="M53.4503 100.99C53.1166 100.989 52.7924 100.879 52.5281 100.675C52.2637 100.471 52.0742 100.186 51.989 99.8632L47.2133 81.922C46.8686 80.6329 47.0114 79.2618 47.6143 78.0713C48.2171 76.8808 49.2378 75.9544 50.481 75.4693C54.3252 73.9687 57.9878 73.412 61.3668 73.8141C64.37 74.172 68.0748 91.952 67.8297 92.3314L69.0149 95.8866C69.0821 96.0882 69.1062 96.3017 69.0855 96.5132C69.0649 96.7248 69 96.9296 68.8951 97.1144C68.7902 97.2992 68.6476 97.46 68.4766 97.5861C68.3056 97.7123 68.1099 97.8011 67.9024 97.8468L53.7797 100.954C53.6716 100.978 53.5611 100.99 53.4503 100.99Z" fill="#CCCCCC"/>
<path d="M57.7302 119.337C57.7982 118.984 57.788 118.621 57.7002 118.272C57.6125 117.923 57.4493 117.598 57.2223 117.319C56.9952 117.04 56.7098 116.814 56.3861 116.658C56.0624 116.501 55.7083 116.417 55.3487 116.413L52.5973 108.116L49.7852 111.683L52.8291 119.015C52.8608 119.619 53.1132 120.191 53.5385 120.622C53.9637 121.053 54.5322 121.313 55.1364 121.353C55.7405 121.393 56.3382 121.21 56.8163 120.838C57.2943 120.467 57.6195 119.933 57.7302 119.337Z" fill="#FFB8B8"/>
<path d="M93.1045 99.3979C92.9398 99.0782 92.707 98.7986 92.4225 98.5786C92.138 98.3587 91.8088 98.2038 91.4579 98.1248C91.1071 98.0459 90.7433 98.0448 90.392 98.1217C90.0407 98.1986 89.7105 98.3516 89.4248 98.5699L82.1346 93.7471L82.1279 98.2894L89.0519 102.173C89.4504 102.629 90.0023 102.922 90.6029 102.998C91.2035 103.074 91.8112 102.928 92.3108 102.585C92.8103 102.243 93.167 101.73 93.3133 101.143C93.4596 100.555 93.3853 99.9343 93.1045 99.3979H93.1045Z" fill="#FFB8B8"/>
<path d="M51.9617 115.504C51.6429 115.504 51.3321 115.404 51.0737 115.217C50.8152 115.03 50.6222 114.767 50.5221 114.464L44.0719 100.82C43.8074 100.02 43.6727 99.1831 43.6729 98.3408L45.6121 80.6059C45.612 79.6129 45.9909 78.6574 46.6715 77.9343C47.352 77.2112 48.2829 76.7752 49.274 76.7151C50.2652 76.6551 51.2418 76.9756 52.0047 77.6113C52.7675 78.2469 53.259 79.1497 53.3788 80.1354L50.4118 100.378L55.1464 112.802C55.2214 113.133 55.1831 113.479 55.0379 113.785C54.8926 114.092 54.6488 114.34 54.3454 114.491L52.6395 115.344C52.4291 115.45 52.197 115.504 51.9617 115.504Z" fill="#CCCCCC"/>
<path d="M86.4108 101.189C86.1733 101.189 85.9392 101.133 85.7272 101.026L72.8998 94.5469C72.1478 94.1674 71.4615 93.6698 70.8672 93.0729L58.347 80.5123C57.6461 79.809 57.2399 78.8648 57.2116 77.8722C57.1832 76.8797 57.5347 75.9138 58.1943 75.1716C58.8539 74.4295 59.7719 73.967 60.7609 73.8787C61.7499 73.7904 62.7353 74.0829 63.5159 74.6965L77.0786 89.7589L87.8295 96.585C88.1159 96.7662 88.3332 97.0383 88.4465 97.3577C88.5597 97.6772 88.5625 98.0254 88.4542 98.3465L87.8482 100.155C87.7471 100.456 87.554 100.718 87.2961 100.904C87.0382 101.089 86.7285 101.189 86.4108 101.189L86.4108 101.189Z" fill="#CCCCCC"/>
<path d="M44.6426 59.2106C45.991 60.9746 47.9294 62.1943 50.1032 62.6467C52.3067 63.102 54.5999 62.7734 56.5868 61.7177C58.1856 60.8539 59.465 59.5574 60.7181 58.281C61.241 57.7482 61.7981 57.1339 61.7717 56.4072C61.731 55.2812 60.3774 54.6656 59.2156 54.4201C55.4022 53.6245 51.4342 54.0708 47.8927 55.6934C46.3155 56.4261 44.6721 57.7516 44.909 59.3993" fill="#2F2E41"/>
<path d="M253.112 61.2305H97.3256C95.869 61.2325 94.4726 61.8121 93.4427 62.8421C92.4127 63.872 91.8331 65.2684 91.8311 66.725V126.842C91.8331 128.299 92.4127 129.695 93.4427 130.725C94.4726 131.755 95.869 132.334 97.3256 132.336H253.112C254.569 132.334 255.965 131.755 256.995 130.725C258.025 129.695 258.605 128.299 258.607 126.842V66.725C258.605 65.2684 258.025 63.872 256.995 62.8421C255.965 61.8121 254.569 61.2325 253.112 61.2305ZM257.96 126.842C257.959 128.127 257.448 129.359 256.539 130.268C255.63 131.177 254.398 131.688Z" stroke="#3F3D56" fill="#FFF"/>
<path d="M125.61 115.529C121.903 115.529 118.278 114.43 115.196 112.37C112.113 110.31 109.71 107.382 108.291 103.957C106.872 100.532 106.501 96.7625 107.224 93.1261C107.948 89.4897 109.733 86.1494 112.355 83.5277C114.977 80.906 118.317 79.1206 121.953 78.3973C125.59 77.674 129.359 78.0452 132.784 79.4641C136.21 80.8829 139.137 83.2857 141.197 86.3685C143.257 89.4512 144.357 93.0756 144.357 96.7832C144.351 101.753 142.374 106.518 138.86 110.033C135.345 113.547 130.58 115.524 125.61 115.529ZM125.61 78.6835C122.031 78.6835 118.531 79.7451 115.555 81.7339C112.578 83.7227 110.258 86.5495 108.888 89.8568C107.519 93.1641 107.16 96.8033 107.858 100.314C108.557 103.825 110.281 107.05 112.812 109.582C115.343 112.113 118.568 113.837 122.079 114.535C125.59 115.234 129.23 114.875 132.537 113.505C135.844 112.135 138.671 109.815 140.66 106.839C142.649 103.862 143.71 100.363 143.71 96.7832C143.705 91.9846 141.796 87.384 138.403 83.9908C135.01 80.5976 130.409 78.689 125.61 78.6835Z" fill="#3F3D56"/>
<path d="M239.209 84.8247H164.548C163.505 84.8253 162.502 85.2298 161.75 85.9534C160.998 86.6771 160.555 87.6636 160.515 88.7064C160.509 88.759 160.507 88.8119 160.508 88.8648C160.51 89.9359 160.936 90.9626 161.693 91.7199C162.45 92.4773 163.477 92.9034 164.548 92.9049H239.209C240.281 92.9049 241.309 92.4793 242.066 91.7216C242.824 90.9639 243.25 89.9363 243.25 88.8648C243.25 87.7933 242.824 86.7657 242.066 86.008C241.309 85.2504 240.281 84.8247 239.209 84.8247Z" fill="#6C63FF"/>
<path d="M239.209 100.662H164.548C163.505 100.663 162.502 101.067 161.75 101.791C160.998 102.514 160.555 103.501 160.515 104.544C160.509 104.596 160.507 104.649 160.508 104.702C160.51 105.773 160.936 106.8 161.693 107.557C162.45 108.315 163.477 108.741 164.548 108.742H239.209C240.281 108.742 241.309 108.317 242.066 107.559C242.824 106.801 243.25 105.774 243.25 104.702C243.25 103.631 242.824 102.603 242.066 101.845C241.309 101.088 240.281 100.662 239.209 100.662Z" fill="#6C63FF"/>
<path d="M123.519 104.974C122.996 104.975 122.487 104.806 122.068 104.492L122.042 104.473L116.579 100.29C116.326 100.096 116.114 99.854 115.954 99.5781C115.794 99.3022 115.691 98.9975 115.649 98.6815C115.607 98.3655 115.628 98.0443 115.71 97.7364C115.792 97.4284 115.935 97.1397 116.128 96.8867C116.322 96.6336 116.564 96.4213 116.84 96.2617C117.116 96.1021 117.421 95.9985 117.737 95.9566C118.053 95.9148 118.374 95.9356 118.682 96.0179C118.99 96.1002 119.279 96.2423 119.532 96.4362L123.07 99.1497L131.433 88.2433C131.627 87.9904 131.869 87.7781 132.145 87.6186C132.421 87.4591 132.726 87.3556 133.042 87.3138C133.358 87.2721 133.679 87.2931 133.987 87.3755C134.295 87.4579 134.584 87.6001 134.836 87.7941L134.784 87.8647L134.838 87.7951C135.348 88.1873 135.682 88.7658 135.766 89.4038C135.85 90.0418 135.678 90.6872 135.287 91.1983L125.45 104.027C125.223 104.323 124.93 104.562 124.595 104.726C124.26 104.89 123.892 104.975 123.519 104.974Z" fill="#6C63FF"/>
<path d="M123.466 175H0.323209C0.237489 175 0.155279 174.966 0.0946655 174.905C0.034052 174.845 0 174.762 0 174.677C0 174.591 0.034052 174.509 0.0946655 174.448C0.155279 174.388 0.237489 174.354 0.323209 174.354H123.466C123.552 174.354 123.634 174.388 123.694 174.448C123.755 174.509 123.789 174.591 123.789 174.677C123.789 174.762 123.755 174.845 123.694 174.905C123.634 174.966 123.552 175 123.466 175Z" fill="#3F3D56"/>
<path d="M220.835 46.6698C214.083 45.7412 207.226 45.8957 200.523 47.1278C193.839 48.3497 187.387 50.6057 181.398 53.8145C178.032 55.623 174.837 57.7336 171.854 60.1201C171.366 60.5095 172.056 61.1916 172.539 60.8057C177.775 56.6408 183.644 53.3415 189.924 51.0333C196.154 48.7292 202.702 47.4007 209.337 47.095C213.092 46.9225 216.854 47.0932 220.577 47.6048C220.701 47.6345 220.832 47.616 220.942 47.5532C221.053 47.4903 221.136 47.3877 221.174 47.2662C221.207 47.1423 221.19 47.0101 221.127 46.8985C221.063 46.7868 220.959 46.7047 220.835 46.6698H220.835Z" fill="white"/>
</g>
<defs>
<clipPath id="clip0">
<rect width="258.607" height="175" fill="white"/>
</clipPath>
</defs>
</svg>
