<svg width="386" height="389" viewBox="0 0 386 389" fill="none" xmlns="http://www.w3.org/2000/svg">
<path d="M73.1107 52.6456C110.229 -8.35241 229.916 -18.8693 314.757 34.4163C398.841 87.7019 384.449 179.549 351.118 291.73C317.788 403.91 213.251 391.29 132.197 383.577C51.1432 375.865 89.0185 244.754 54.1729 194.974C19.3273 145.194 35.9926 113.644 73.1107 52.6456Z" fill="#B0D8EE"/>
<g clip-path="url(#clip0)">
<path d="M57.2383 356.766L64.7268 358.873L76.3665 330.808L65.3144 327.699L57.2383 356.766Z" fill="#FFB8B8"/>
<path d="M77.2256 369.934L53.6894 363.312L56.2318 354.162L71.5846 358.481C73.755 359.092 75.5954 360.545 76.701 362.521C77.8066 364.497 78.0868 366.834 77.48 369.018L77.2256 369.934Z" fill="#2F2E41"/>
<path d="M146.569 362.668L154.345 362.667L158.043 332.485L146.566 332.485L146.569 362.668Z" fill="#FFB8B8"/>
<path d="M169.343 369.932L144.904 369.934L144.903 360.432L160.845 360.431C161.961 360.43 163.066 360.652 164.097 361.081C165.128 361.511 166.064 362.141 166.853 362.935C167.642 363.728 168.268 364.671 168.696 365.708C169.123 366.746 169.343 367.858 169.343 368.981L169.343 369.932Z" fill="#2F2E41"/>
<path d="M88.7846 237.362L70.8867 281.484L143.97 298.006L144.902 273.321L111.717 237.751L88.7846 237.362Z" fill="#B3B3B3"/>
<path d="M128.438 168.629C136.534 164.175 139.509 153.961 135.083 145.814C130.658 137.667 120.507 134.673 112.412 139.127C104.316 143.58 101.341 153.795 105.766 161.942C110.192 170.088 120.342 173.082 128.438 168.629Z" fill="#FFB8B8"/>
<path d="M132.362 234.921L99.2815 221.294L96.3362 201.751C95.4688 196.039 96.8232 190.21 100.118 185.477C103.412 180.744 108.393 177.471 114.024 176.339L118.4 175.455C121.995 174.73 125.71 174.9 129.225 175.949C132.739 176.998 135.946 178.895 138.567 181.474C141.134 183.942 143.054 187.012 144.155 190.409C145.256 193.806 145.504 197.424 144.876 200.941C144.382 203.954 143.167 206.802 141.337 209.238C130.945 222.914 132.279 234.282 132.294 234.395L132.362 234.921Z" fill="#6C63FF"/>
<path d="M145.831 285.887L129.252 259.355L134.474 211.091L127.261 174.995L127.644 175.005C131.84 175.109 135.835 176.833 138.801 179.82C141.768 182.807 143.48 186.828 143.582 191.05L150.599 226.42L145.831 285.887Z" fill="#2F2E41"/>
<path d="M146.21 356.962C145.511 356.961 144.834 356.717 144.294 356.272C143.753 355.826 143.383 355.206 143.245 354.516L135.981 318.172C134.655 311.513 132.157 305.146 128.605 299.372L108.11 266.01C108.008 265.844 107.863 265.71 107.69 265.622C107.517 265.533 107.323 265.495 107.13 265.511C106.936 265.526 106.751 265.595 106.594 265.71C106.437 265.824 106.315 265.98 106.24 266.161L72.5458 347.614C72.2749 348.265 71.7882 348.801 71.1685 349.132C70.5488 349.463 69.8343 349.567 69.1468 349.427L60.1457 347.581C59.3745 347.426 58.6941 346.974 58.2496 346.321C57.805 345.668 57.6316 344.867 57.7662 344.087L65.1091 300.54C66.6069 291.664 69.1592 283.001 72.7109 274.738L97.5788 216.903L134.278 229.031L136.699 254.891L153.656 296.209C154.828 299.062 155.528 302.089 155.729 305.17L158.862 352.922C158.911 353.719 158.648 354.504 158.13 355.109C157.612 355.713 156.879 356.09 156.089 356.159L146.459 356.952C146.375 356.958 146.292 356.962 146.21 356.962Z" fill="#2F2E41"/>
<path d="M79.2615 297.719L67.627 286.606L89.6147 201.284C91.0097 195.92 93.6252 190.955 97.2546 186.783C100.884 182.61 105.428 179.344 110.527 177.243L110.959 177.066L109.784 228.994L79.2615 297.719Z" fill="#2F2E41"/>
<path d="M116.531 170.629C112.404 167.034 111.149 160.328 113.678 155.384C116.207 150.44 122.253 147.778 127.424 149.334C132.294 150.798 137.83 145.913 137.237 140.674C136.643 135.435 130.168 132.023 125.758 134.625C122.419 133.277 118.764 132.927 115.232 133.62C111.7 134.312 108.443 136.016 105.85 138.527C100.67 143.634 98.7048 151.982 101.03 159.002C103.356 166.022 109.848 171.337 116.531 170.629Z" fill="#2F2E41"/>
<path d="M101.916 307.26C101.713 307.338 101.5 307.393 101.284 307.424L74.7217 311.155C74.0792 311.247 73.4244 311.117 72.8652 310.785C72.3059 310.454 71.8756 309.94 71.6448 309.33L48.781 249.461C48.6329 249.074 48.5697 248.659 48.5955 248.244C48.6213 247.83 48.7356 247.426 48.9305 247.06C49.1255 246.694 49.3966 246.375 49.7253 246.123C50.054 245.872 50.4327 245.696 50.8354 245.605L50.8355 245.605L75.8146 239.996C76.0074 239.952 76.1937 239.884 76.369 239.792L100.665 227.009C100.852 226.91 101.05 226.833 101.255 226.778L127.993 219.605C128.678 219.42 129.406 219.497 130.038 219.821C130.669 220.145 131.159 220.694 131.412 221.36L151.348 273.562C151.523 274.016 151.58 274.509 151.514 274.992C151.449 275.475 151.261 275.933 150.971 276.324L144.076 285.641C143.752 286.079 143.311 286.416 142.803 286.612L127.736 292.439C127.628 292.481 127.523 292.531 127.423 292.588L102.315 307.069C102.187 307.143 102.054 307.206 101.916 307.26Z" fill="white"/>
<path d="M114.275 227.586L110.88 228.497L101.882 230.912L101.866 230.916L89.5474 237.397L84.9759 239.803L84.9738 239.804L78.1079 243.416L77.9196 243.459L70.7871 245.059L67.34 245.835L53.2803 248.992L75.3522 306.787L89.8406 304.752L93.393 304.253L100.965 303.188L101.053 303.176L125.383 289.144L140.187 283.419L146.946 274.286L127.733 223.976L114.275 227.586Z" fill="#E6E6E6"/>
<path d="M130.899 232.265L57.7031 260.572L58.9566 263.854L132.152 235.547L130.899 232.265Z" fill="white"/>
<path d="M135.076 243.205L61.8809 271.512L63.1343 274.794L136.33 246.488L135.076 243.205Z" fill="white"/>
<path d="M143.517 265.305L70.3213 293.612L71.5748 296.894L144.77 268.588L143.517 265.305Z" fill="white"/>
<path d="M114.274 227.586L136.188 284.965L132.926 286.227L110.879 228.498L114.274 227.586Z" fill="white"/>
<path d="M89.5474 237.397L85.0478 249.996L83.4876 254.367L79.848 264.564L79.0682 266.744L78.2877 268.934L77.26 271.81L69.8835 292.468L67.9658 287.446L73.9804 270.6L75.3411 266.786L75.5406 266.229L77.1498 261.72L79.1802 256.033L80.7404 251.662L84.9737 239.804L84.9756 239.803L89.5474 237.397Z" fill="white"/>
<path opacity="0.1" d="M125.914 288.939L125.384 289.144L101.053 303.177L100.965 303.188L77.9199 243.459L78.1085 243.416L84.9744 239.804L84.9763 239.804L89.5481 237.398L101.867 230.916L101.883 230.912L125.914 288.939Z" fill="black"/>
<path d="M102.026 307.547C101.801 307.634 101.566 307.695 101.327 307.729L74.7644 311.46C74.0533 311.562 73.3287 311.418 72.7099 311.051C72.0911 310.684 71.6148 310.116 71.3595 309.44L48.4956 249.572C48.3318 249.143 48.2618 248.684 48.2904 248.225C48.319 247.766 48.4454 247.319 48.6612 246.914C48.877 246.509 49.177 246.156 49.5407 245.878C49.9045 245.6 50.3234 245.405 50.7691 245.305L75.7481 239.695C75.9148 239.657 76.076 239.598 76.2276 239.519L100.523 226.736C100.731 226.627 100.95 226.541 101.176 226.48L127.914 219.307C128.672 219.103 129.478 219.188 130.177 219.547C130.876 219.905 131.418 220.512 131.698 221.25L151.634 273.451C151.828 273.954 151.891 274.499 151.818 275.034C151.745 275.568 151.538 276.076 151.217 276.508L144.322 285.824C143.963 286.31 143.475 286.682 142.914 286.899L127.846 292.726C127.753 292.762 127.662 292.806 127.575 292.856L102.467 307.336C102.326 307.418 102.179 307.488 102.026 307.547ZM50.7602 246.591C50.2769 246.778 49.8873 247.151 49.6769 247.627C49.4665 248.103 49.4527 248.644 49.6384 249.13L72.5022 308.998C72.6591 309.414 72.9519 309.763 73.3323 309.989C73.7127 310.214 74.1581 310.303 74.5952 310.24L101.158 306.509C101.404 306.474 101.642 306.392 101.859 306.267L126.967 291.787C127.108 291.705 127.255 291.635 127.407 291.576L142.474 285.749C142.819 285.616 143.12 285.387 143.34 285.089L150.235 275.772C150.432 275.506 150.56 275.195 150.605 274.866C150.649 274.537 150.611 274.202 150.491 273.893L130.556 221.691C130.383 221.238 130.05 220.865 129.621 220.645C129.191 220.424 128.696 220.372 128.23 220.498L101.492 227.67C101.353 227.708 101.219 227.761 101.091 227.828L76.7948 240.611C76.5482 240.74 76.2862 240.836 76.0151 240.898L51.0359 246.507C50.942 246.528 50.8499 246.556 50.7602 246.591Z" fill="#E6E6E6"/>
<path d="M70.7872 245.059L93.3929 304.252L89.8408 304.752L67.3398 245.835L70.7872 245.059Z" fill="white"/>
<path d="M77.2888 268.952C78.1894 268.952 78.9195 268.218 78.9195 267.311C78.9195 266.405 78.1894 265.67 77.2888 265.67C76.3883 265.67 75.6582 266.405 75.6582 267.311C75.6582 268.218 76.3883 268.952 77.2888 268.952Z" fill="#3F3D56"/>
<path d="M135.105 270.702C136.006 270.702 136.736 269.967 136.736 269.061C136.736 268.155 136.006 267.42 135.105 267.42C134.205 267.42 133.475 268.155 133.475 269.061C133.475 269.967 134.205 270.702 135.105 270.702Z" fill="#6C63FF"/>
<path d="M135.766 239.423C137.617 244.269 135.39 260.328 134.606 265.483C134.582 265.647 134.515 265.801 134.411 265.93C134.308 266.058 134.173 266.158 134.02 266.217C133.867 266.276 133.7 266.294 133.538 266.267C133.376 266.241 133.223 266.172 133.096 266.067C129.084 262.767 116.742 252.342 114.892 247.496C114.365 246.117 114.113 244.646 114.151 243.169C114.189 241.692 114.516 240.237 115.112 238.887C115.709 237.537 116.564 236.318 117.629 235.301C118.694 234.283 119.947 233.487 121.318 232.956C122.688 232.426 124.149 232.173 125.617 232.211C127.085 232.249 128.531 232.578 129.873 233.179C131.215 233.779 132.426 234.64 133.437 235.711C134.448 236.782 135.239 238.044 135.766 239.423V239.423Z" fill="#6C63FF"/>
<path d="M125.328 249.554C128.673 249.554 131.385 246.826 131.385 243.46C131.385 240.093 128.673 237.365 125.328 237.365C121.983 237.365 119.271 240.093 119.271 243.46C119.271 246.826 121.983 249.554 125.328 249.554Z" fill="white"/>
<path d="M117.549 230.309C117.794 229.404 118.234 228.563 118.836 227.847C119.439 227.131 120.19 226.557 121.037 226.165C121.885 225.773 122.807 225.573 123.739 225.578C124.672 225.583 125.592 225.794 126.434 226.196L137.246 216.361L144.788 221.515L129.326 235.189C128.561 236.568 127.32 237.618 125.838 238.138C124.356 238.659 122.735 238.614 121.283 238.012C119.832 237.411 118.65 236.295 117.962 234.875C117.273 233.455 117.127 231.83 117.549 230.309Z" fill="#FFB8B8"/>
<path d="M134.969 233.519L126.494 221.944L145.816 209.5L131.967 189.614C130.836 187.99 130.34 186.002 130.574 184.032C130.808 182.062 131.757 180.248 133.237 178.938C134.718 177.628 136.627 176.914 138.599 176.932C140.57 176.95 142.466 177.7 143.922 179.037L161.262 194.957C162.914 196.474 164.195 198.354 165.007 200.45C165.818 202.547 166.138 204.803 165.941 207.044C165.744 209.286 165.035 211.451 163.87 213.371C162.705 215.292 161.115 216.915 159.224 218.116L134.969 233.519Z" fill="#2F2E41"/>
<path d="M68.5684 263.888C69.3345 263.353 69.9748 262.656 70.4442 261.845C70.9136 261.034 71.2006 260.13 71.285 259.195C71.3694 258.261 71.2492 257.319 70.9329 256.436C70.6165 255.554 70.1117 254.752 69.4539 254.087L75.0565 240.547L67.7103 235.114L60.0653 254.347C59.0282 255.533 58.4595 257.06 58.4669 258.64C58.4743 260.22 59.0573 261.742 60.1054 262.918C61.1535 264.094 62.5939 264.842 64.1537 265.021C65.7135 265.2 67.2843 264.797 68.5684 263.888V263.888Z" fill="#FFB8B8"/>
<path d="M72.3533 250.14L59.1035 247.035L68.9773 218.384C70.6788 213.44 73.189 208.817 76.4043 204.706L92.5125 184.093C93.9857 182.208 96.1414 180.987 98.5075 180.697C100.874 180.408 103.257 181.075 105.136 182.55C107.015 184.026 108.236 186.191 108.531 188.571C108.827 190.951 108.173 193.352 106.713 195.248L88.8392 218.463L72.3533 250.14Z" fill="#2F2E41"/>
<path d="M233.824 370.572H0.612104C0.449764 370.572 0.294063 370.507 0.179271 370.392C0.0644796 370.276 0 370.12 0 369.956C0 369.793 0.0644796 369.636 0.179271 369.521C0.294063 369.405 0.449764 369.34 0.612104 369.34H233.824C233.986 369.34 234.142 369.405 234.257 369.521C234.371 369.636 234.436 369.793 234.436 369.956C234.436 370.12 234.371 370.276 234.257 370.392C234.142 370.507 233.986 370.572 233.824 370.572Z" fill="#CCCCCC"/>
<path d="M324.285 370.264H318.776V45.3441C318.776 44.609 319.067 43.9039 319.583 43.3841C320.1 42.8643 320.8 42.5723 321.531 42.5723C322.261 42.5723 322.962 42.8643 323.479 43.3841C323.995 43.9039 324.285 44.609 324.285 45.3441V370.264Z" fill="#E6E6E6"/>
<path d="M364.202 370.572H278.508C278.345 370.572 278.19 370.507 278.075 370.392C277.96 370.276 277.896 370.12 277.896 369.956C277.896 369.793 277.96 369.636 278.075 369.521C278.19 369.405 278.345 369.34 278.508 369.34H364.202C364.365 369.34 364.52 369.405 364.635 369.521C364.75 369.636 364.814 369.793 364.814 369.956C364.814 370.12 364.75 370.276 364.635 370.392C364.52 370.507 364.365 370.572 364.202 370.572Z" fill="#CCCCCC"/>
<path d="M362.511 85.0733H282.356C281.626 85.0725 280.926 84.7802 280.409 84.2605C279.893 83.7409 279.602 83.0363 279.602 82.3014V58.8949C279.602 58.16 279.893 57.4555 280.409 56.9358C280.926 56.4162 281.626 56.1239 282.356 56.123H362.517C362.987 56.1234 363.449 56.2444 363.859 56.4746L384.588 68.1157C385.015 68.3556 385.371 68.7057 385.619 69.13C385.868 69.5544 385.999 70.0376 386 70.5299C386.001 71.0223 385.872 71.5061 385.625 71.9315C385.379 72.3569 385.025 72.7086 384.598 72.9504L363.864 84.716C363.451 84.9499 362.985 85.0729 362.511 85.0733Z" fill="#6C63FF"/>
<path d="M355.196 135.583H275.041C274.567 135.582 274.101 135.459 273.688 135.225L252.953 123.46C252.527 123.218 252.173 122.866 251.926 122.441C251.68 122.015 251.551 121.532 251.552 121.039C251.553 120.547 251.684 120.064 251.932 119.639C252.181 119.215 252.537 118.865 252.964 118.625L273.693 106.984C274.103 106.754 274.565 106.633 275.035 106.632H355.196C355.926 106.633 356.626 106.925 357.143 107.445C357.659 107.965 357.949 108.669 357.95 109.404V132.811C357.949 133.546 357.659 134.25 357.143 134.77C356.626 135.289 355.926 135.582 355.196 135.583Z" fill="#E6E6E6"/>
<path d="M355.502 185.168H275.347C274.874 185.167 274.408 185.044 273.995 184.81L253.26 173.045C252.834 172.803 252.479 172.451 252.233 172.026C251.987 171.6 251.857 171.117 251.858 170.624C251.859 170.132 251.991 169.649 252.239 169.224C252.487 168.8 252.843 168.45 253.271 168.21L273.999 156.569C274.41 156.339 274.872 156.218 275.342 156.217H355.502C356.233 156.218 356.933 156.51 357.449 157.03C357.966 157.55 358.256 158.254 358.257 158.989V182.396C358.256 183.131 357.966 183.835 357.449 184.355C356.933 184.874 356.233 185.167 355.502 185.168Z" fill="#E6E6E6"/>
</g>
<defs>
<clipPath id="clip0">
<rect width="386" height="328" fill="white" transform="translate(0 42.5723)"/>
</clipPath>
</defs>
</svg>
